<?xml version="1.0" encoding="UTF-8" standalone="no"?>
<!-- Created with Inkscape (http://www.inkscape.org/) -->

<svg
   xmlns:dc="http://purl.org/dc/elements/1.1/"
   xmlns:cc="http://creativecommons.org/ns#"
   xmlns:rdf="http://www.w3.org/1999/02/22-rdf-syntax-ns#"
   xmlns:svg="http://www.w3.org/2000/svg"
   xmlns="http://www.w3.org/2000/svg"
   xmlns:sodipodi="http://sodipodi.sourceforge.net/DTD/sodipodi-0.dtd"
   xmlns:inkscape="http://www.inkscape.org/namespaces/inkscape"
   width="1920"
   height="1080"
   viewBox="0 0 508.00001 285.74999"
   version="1.1"
   id="svg8"
   inkscape:version="0.92.3 (2405546, 2018-03-11)"
   sodipodi:docname="TitleScreen.svg"
   inkscape:export-filename="C:\Users\Adriel\Perforce\Adriel_Desktop\ShotInTheDark\Inkscape\TitleScreen.png"
   inkscape:export-xdpi="25.4"
   inkscape:export-ydpi="25.4">
  <defs
     id="defs2">
    <inkscape:path-effect
       effect="envelope"
       id="path-effect849"
       is_visible="true"
       yy="true"
       xx="true"
       bendpath1="m 359.88139,95.510547 c 109.18427,2.871082 218.3799,5.869643 326.78596,0"
       bendpath2="M 686.66735,95.510547 V 135.66784"
       bendpath3="m 359.88139,135.66784 c 111.44395,-10.17051 176.27653,-12.54611 326.78596,0"
       bendpath4="M 359.88139,95.510547 V 135.66784"
       bendpath1-nodetypes="cc"
       bendpath3-nodetypes="cc" />
    <inkscape:path-effect
       effect="perspective-envelope"
       up_left_point="359.88139,95.510547"
       up_right_point="686.66735,95.510547"
       down_left_point="359.88139,135.66784"
       down_right_point="686.66735,135.66784"
       id="path-effect847"
       is_visible="true"
       deform_type="envelope_deformation"
       horizontal_mirror="false"
       vertical_mirror="false"
       overflow_perspective="false" />
    <inkscape:path-effect
       effect="perspective-envelope"
       up_left_point="381.83659,96.893281"
       up_right_point="663.83138,96.893281"
       down_left_point="358.33203,132.81353"
       down_right_point="687.33594,132.81353"
       id="path-effect845"
       is_visible="true"
       deform_type="perspective"
       horizontal_mirror="false"
       vertical_mirror="true"
       overflow_perspective="true" />
    <inkscape:path-effect
       effect="roughen"
       id="path-effect843"
       is_visible="true"
       method="size"
       max_segment_size="5"
       segments="3"
       displace_x="2;1"
       displace_y="3;1"
       global_randomize="1;1268278738"
       handles="along"
       shift_nodes="true"
       fixed_displacement="false"
       spray_tool_friendly="false" />
    <inkscape:path-effect
       effect="lattice2"
       gridpoint0="346.88046,102.25252"
       gridpoint1="698.78751,102.25252"
       gridpoint2="364.20604,137.29964"
       gridpoint3="681.46193,137.29964"
       gridpoint4="440.58301,101.81743"
       gridpoint5="605.08496,101.81743"
       gridpoint6="438.90795,127.90799"
       gridpoint7="606.76002,127.90799"
       gridpoint8x9="522.83398,105.60086"
       gridpoint10x11="521.93572,125.10654"
       gridpoint12="360.0492,107.90208"
       gridpoint13="685.61877,107.90208"
       gridpoint14="364.6767,124.77989"
       gridpoint15="680.99127,124.77989"
       gridpoint16="440.58301,109.56645"
       gridpoint17="605.08496,109.56645"
       gridpoint18="435.51467,121.91261"
       gridpoint19="610.1533,121.91261"
       gridpoint20x21="522.23514,113.20975"
       gridpoint22x23="523.73225,123.38298"
       gridpoint24x26="357.97705,115.85204"
       gridpoint25x27="687.69092,115.85204"
       gridpoint28x30="440.58301,117.31548"
       gridpoint29x31="605.08496,117.31548"
       gridpoint32x33x34x35="523.13341,119.97789"
       id="path-effect4764"
       is_visible="true"
       horizontal_mirror="false"
       vertical_mirror="true"
       live_update="true" />
    <inkscape:path-effect
       effect="envelope"
       id="path-effect4762"
       is_visible="true"
       yy="true"
       xx="true"
       bendpath1="M 358.33203,101.81743 H 687.33594"
       bendpath2="m 687.33594,101.81743 v 30.9961"
       bendpath3="M 358.33203,132.81353 H 687.33594"
       bendpath4="m 358.33203,101.81743 v 30.9961" />
    <inkscape:path-effect
       effect="lattice2"
       gridpoint0="358.33203,101.81743"
       gridpoint1="687.33594,101.81743"
       gridpoint2="358.33203,132.81353"
       gridpoint3="687.33594,132.81353"
       gridpoint4="440.58301,101.81743"
       gridpoint5="605.08496,101.81743"
       gridpoint6="440.58301,132.81353"
       gridpoint7="605.08496,132.81353"
       gridpoint8x9="522.83398,101.81743"
       gridpoint10x11="522.83398,132.81353"
       gridpoint12="358.33203,109.56645"
       gridpoint13="687.33594,109.56645"
       gridpoint14="358.33203,125.0645"
       gridpoint15="687.33594,125.0645"
       gridpoint16="440.58301,109.56645"
       gridpoint17="605.08496,109.56645"
       gridpoint18="440.58301,125.0645"
       gridpoint19="605.08496,125.0645"
       gridpoint20x21="522.83398,109.56645"
       gridpoint22x23="522.83398,125.0645"
       gridpoint24x26="358.33203,117.31548"
       gridpoint25x27="687.33594,117.31548"
       gridpoint28x30="440.58301,117.31548"
       gridpoint29x31="605.08496,117.31548"
       gridpoint32x33x34x35="522.83398,117.31548"
       id="path-effect4750"
       is_visible="true"
       horizontal_mirror="true"
       vertical_mirror="true"
       live_update="true" />
    <inkscape:path-effect
       effect="knot"
       id="path-effect4748"
       is_visible="true"
       interruption_width="3"
       prop_to_stroke_width="true"
       add_stroke_width="true"
       add_other_stroke_width="true"
       switcher_size="15"
       crossing_points_vector="" />
    <inkscape:path-effect
       effect="interpolate_points"
       id="path-effect4696"
       is_visible="false"
       interpolator_type="CentripetalCatmullRom" />
    <inkscape:path-effect
       effect="bend_path"
       id="path-effect4694"
       is_visible="true"
       bendpath="M 358.33203,117.31548 H 687.33594"
       prop_scale="1"
       scale_y_rel="false"
       vertical="false" />
    <inkscape:path-effect
       effect="perspective-envelope"
       up_left_point="366.86553,101.85246"
       up_right_point="678.80244,101.85246"
       down_left_point="366.86553,132.7785"
       down_right_point="678.80244,132.7785"
       id="path-effect4690"
       is_visible="true"
       deform_type="perspective"
       horizontal_mirror="false"
       vertical_mirror="true"
       overflow_perspective="false" />
    <filter
       inkscape:collect="always"
       style="color-interpolation-filters:sRGB"
       id="filter4527"
       x="-0.25267657"
       width="1.5053531"
       y="-2.6820018"
       height="6.3640036">
      <feGaussianBlur
         inkscape:collect="always"
         stdDeviation="34.638158"
         id="feGaussianBlur4529" />
    </filter>
  </defs>
  <sodipodi:namedview
     id="base"
     pagecolor="#000000"
     bordercolor="#666666"
     borderopacity="1.0"
     inkscape:pageopacity="1"
     inkscape:pageshadow="2"
     inkscape:zoom="0.69999999"
     inkscape:cx="592.86224"
     inkscape:cy="573.19614"
     inkscape:document-units="mm"
     inkscape:current-layer="layer1"
     showgrid="false"
     inkscape:window-width="2560"
     inkscape:window-height="1387"
     inkscape:window-x="-8"
     inkscape:window-y="-8"
     inkscape:window-maximized="1"
     units="px"
     inkscape:pagecheckerboard="true" />
  <metadata
     id="metadata5">
    <rdf:RDF>
      <cc:Work
         rdf:about="">
        <dc:format>image/svg+xml</dc:format>
        <dc:type
           rdf:resource="http://purl.org/dc/dcmitype/StillImage" />
        <dc:title />
      </cc:Work>
    </rdf:RDF>
  </metadata>
  <g
     inkscape:label="Layer 1"
     inkscape:groupmode="layer"
     id="layer1"
     transform="translate(0,-11.25001)">
    <flowRoot
       xml:space="preserve"
       id="flowRoot7"
       style="font-style:normal;font-weight:normal;font-size:40px;line-height:1.25;font-family:sans-serif;letter-spacing:0px;word-spacing:0px;display:none;fill:#ffffff;fill-opacity:0.02898554;stroke:none;filter:url(#filter4527)"
       transform="matrix(0.26458333,0,0,0.26458333,0,11.25001)"><flowRegion
         id="flowRegion9"
         style="fill:#ffffff;fill-opacity:0.02898554"><rect
           id="rect11"
           width="1500"
           height="455.71429"
           x="144.28572"
           y="92.857132"
           style="fill:#ffffff;fill-opacity:0.02898554" /></flowRegion><flowPara
         id="flowPara13"
         style="fill:#ffffff;fill-opacity:1">Shot in the Dark</flowPara></flowRoot>    <flowRoot
       xml:space="preserve"
       id="flowRoot4531"
       style="font-style:normal;font-weight:normal;font-size:40px;line-height:1.25;font-family:sans-serif;letter-spacing:0px;word-spacing:0px;display:none;fill:#000000;fill-opacity:1;stroke:none"
       inkscape:label="flowRoot4531"><flowRegion
         id="flowRegion4533"><rect
           id="rect4535"
           width="237.14287"
           height="210"
           x="498.57144"
           y="194.28571" /></flowRegion><flowPara
         id="flowPara4537" /></flowRoot>    <g
       aria-label="Shot in the Dark"
       transform="matrix(1.2623565,0,0,2.0359076,-406.68641,-144.73643)"
       style="font-style:normal;font-weight:normal;font-size:40px;line-height:1.25;font-family:sans-serif;letter-spacing:0px;word-spacing:0px;display:inline;fill:#ffffff;fill-opacity:0.95505587;stroke:none"
       id="flowRoot4539"
       inkscape:path-effect="#path-effect843;#path-effect845;#path-effect849"
       inkscape:export-xdpi="96"
       inkscape:export-ydpi="96">
      <path
         d="m 388.09488,120.40305 c -0.79646,1.77246 -0.87576,3.45664 -2.17874,5.19246 -1.30553,1.75569 -3.74452,2.13582 -5.23166,3.38124 -1.63722,1.36277 -5.25581,6.53637 -6.96255,7.40332 -0.84873,0.43397 -1.26032,0.30076 -1.6778,-0.19415 -0.41525,-0.49228 -0.90106,0.21558 -1.87466,0.27806 -1.045,0.0671 -2.63062,-2.24198 -3.45175,-2.7697 -0.81818,-0.52582 -2.38616,0.90298 -3.06192,0.59828 -0.66793,-0.30432 -1.1531,0.59813 -1.4014,0.0928 -0.23595,-0.4802 -0.7247,-1.8736 -1.23534,-2.49391 0,0 1.11133,-2.39823 2.26087,-4.77823 1.1496,-2.38014 2.31028,-4.75439 2.31028,-4.75439 0,0 -1.33666,3.26502 -1.33666,3.26502 0.98546,-0.18178 2.138,-0.61015 2.75891,-0.14286 0.62192,0.46805 0.57413,4.01292 1.24358,4.53942 0.67181,0.52835 2.47687,-3.55538 3.2461,-3.83552 0.76789,-0.27965 2.41732,0.19737 3.23199,0.18117 1.15307,-0.0229 2.03815,-0.57925 2.64431,-0.22106 0.61054,0.36079 0.85036,1.71097 1.83738,0.97343 1.96216,-1.45719 3.4083,-3.16611 4.50234,-5.53015 0.92948,-2.00846 0.35655,-1.14183 0.19587,-2.0849 -0.14876,-0.94488 1.40411,-5.39135 0.44575,-5.89832 -0.72114,-0.3889 -2.46355,-0.083 -3.40131,-0.33409 -0.92417,-0.25075 -1.91378,-0.37159 -2.90209,-0.76032 -0.98836,-0.40729 -1.90011,-0.11616 -2.45886,-0.74369 -0.55536,-0.6237 -0.73557,-2.22492 -0.83324,-3.19185 -0.0867,-0.97174 -0.54576,-0.72827 -0.21526,-1.96358 0.32776,-1.22506 0.38072,-4.39811 1.14682,-5.84931 0.86489,-1.638337 2.46978,-2.64182 3.90411,-3.78097 1.58775,-1.260996 4.2088,-2.770737 5.87081,-3.746181 1.48256,-0.874728 3.51105,-2.816521 4.53112,-3.072267 1.01738,-0.255069 1.02668,1.073271 2.3797,1.136383 0.87401,0.04077 1.35872,0.119095 2.08102,0.259761 0.72317,0.140836 0.4683,1.157278 1.05776,1.395459 1.18093,0.477179 2.84266,0.861416 3.57886,1.524923 0,0 -0.66709,1.0229 -1.30099,2.100061 -0.6321,1.074108 -1.23571,2.194726 -1.23571,2.194726 0,0 -1.29872,1.739735 -1.29872,1.739735 0.62964,-2.549488 -0.0973,-3.654985 -1.26764,-4.425239 -0.56737,-0.387667 -2.56158,-0.109163 -3.25582,-0.270913 -0.69345,-0.161565 -0.10415,-0.630202 -0.92408,-0.65042 -0.89782,-0.02214 -1.88216,0.01324 -2.75432,0.222067 -0.89423,0.214112 -2.69678,0.930643 -3.57281,1.471888 -1.69941,1.057121 -2.45723,1.800588 -3.3899,3.587117 -0.85449,1.63677 -0.66445,3.41888 -0.57965,4.39317 0.0853,0.98019 -0.41143,1.76862 0.75969,2.29254 0.63559,0.26561 3.25008,1.04871 4.47659,1.42644 1.22256,0.37649 1.90205,-3.09771 2.68361,-2.711 0.78694,0.40626 1.31807,0.41529 1.69302,1.84812 0.37914,1.44885 0.60828,4.38325 0.73041,5.2503 0.12258,0.87028 0.0205,1.57101 -0.26878,2.80607 -0.2938,1.25442 -0.77207,3.03082 -1.49924,4.64905 z"
         id="path4663"
         inkscape:connector-curvature="0"
         inkscape:original-d="m 380.75391,123.90728 q 0,1.69921 -0.80079,3.35937 -0.78125,1.66016 -2.20703,2.8125 -1.5625,1.25 -3.65234,1.95313 -2.07031,0.70312 -5,0.70312 -3.14453,0 -5.66406,-0.58594 -2.5,-0.58593 -5.09766,-1.73828 v -4.84375 h 0.27344 q 2.20703,1.83594 5.09765,2.83203 2.89063,0.9961 5.42969,0.9961 3.59375,0 5.58594,-1.34766 2.01172,-1.34766 2.01172,-3.59375 0,-1.93359 -0.95703,-2.85156 -0.9375,-0.91797 -2.8711,-1.42578 -1.46484,-0.39063 -3.18359,-0.64453 -1.69922,-0.25391 -3.61328,-0.64454 -3.86719,-0.82031 -5.74219,-2.79296 -1.85547,-1.99219 -1.85547,-5.17579 0,-3.65234 3.08594,-5.97656 3.08594,-2.34375 7.83203,-2.34375 3.06641,0 5.625,0.58594 2.55859,0.58594 4.53125,1.44531 v 4.57031 h -0.27344 q -1.66015,-1.40625 -4.375,-2.32421 -2.69531,-0.9375 -5.52734,-0.9375 -3.10547,0 -5,1.28906 -1.875,1.28906 -1.875,3.32031 0,1.81641 0.9375,2.85156 0.9375,1.03516 3.30078,1.58203 1.25,0.27344 3.55469,0.66407 2.30469,0.39062 3.90625,0.80078 3.24219,0.85937 4.88281,2.59765 1.64063,1.73829 1.64063,4.86329 z"
         style="fill:#ffffff;fill-opacity:0.95505587" />
      <path
         d="m 405.26043,132.80205 c 0,0 -2.7902,-1.00973 -2.7902,-1.00973 0,0 0.59071,-1.41571 1.22045,-2.92382 0.62827,-1.50458 1.28528,-3.10016 1.28528,-3.10016 0,0 0.81542,-1.52406 1.64224,-3.11488 0.82364,-1.58472 1.64844,-3.21822 1.64844,-3.21822 0,0 0.40087,-1.79271 0.79737,-3.63117 0.39577,-1.83508 0.7837,-3.6828 0.7837,-3.6828 0.55968,0.2797 -0.12187,1.7746 0.2597,0.48189 0.38473,-1.29801 1.61244,-4.86696 1.59809,-5.53952 0.002,-0.78347 0.1135,-3.86208 -0.27945,-4.1963 -0.39499,-0.35903 -0.1888,1.14606 -1.0638,1.14398 -0.89833,-0.002 -5.32831,3.46128 -6.60528,4.17128 -1.26734,0.70466 -0.78129,0.22104 -2.12954,1.32557 0,0 -3.20314,6.91346 -3.20314,6.91346 0,0 -1.82892,4.83837 -1.82892,4.83837 0,0 -1.09986,1.94341 -2.19209,3.82979 -1.09637,1.89354 -2.1662,3.71276 -2.1662,3.71276 0,0 -0.40309,1.74283 -0.75076,3.38641 -0.35084,1.65862 -0.62169,3.19787 -0.62169,3.19787 0,0 -2.7227,-1.79735 -2.7227,-1.79735 0,0 1.06304,-2.35683 2.2175,-4.84317 1.15447,-2.48633 2.35307,-5.08982 2.35307,-5.08982 0,0 0.8014,-1.29405 0.8014,-1.29405 0,0 0.81224,-2.36136 1.61851,-4.79479 0.80464,-2.42852 1.59155,-4.88007 1.59155,-4.88007 0,0 1.36443,-4.18593 1.36443,-4.18593 0,0 1.1737,-2.40523 2.37502,-4.72891 1.20626,-2.33326 2.45792,-4.523162 2.45792,-4.523162 0,0 0.4389,-0.959712 0.89705,-1.882337 0.45966,-0.925654 0.94127,-1.808632 0.94127,-1.808632 0,0 0.71236,-1.133708 1.47609,-2.182365 0.76681,-1.052874 1.59247,-2.008993 1.59247,-2.008993 0,0 3.41588,0.342496 3.41588,0.342496 0,0 -0.85333,0.759029 -1.66724,1.590465 -0.81186,0.829341 -1.58828,1.723981 -1.58828,1.723981 0,0 -0.34805,0.846751 -0.67294,1.738267 -0.3235,0.887693 -0.62662,1.814539 -0.62662,1.814539 0,0 -0.6242,1.284592 -1.22436,2.633761 -0.59791,1.34412 -1.17666,2.73772 -1.17666,2.73772 1.20102,-1.29547 2.78935,-3.01032 4.22149,-3.68161 1.38626,-0.649799 2.37417,-1.042026 3.50774,-1.025817 1.03764,0.01484 2.57974,-0.163675 3.20401,0.481052 0.63025,0.650885 1.05625,1.066845 1.22604,1.957675 0.17015,0.89266 -0.0511,2.37505 -0.47569,4.05759 -0.43036,1.70541 1.16409,0.46244 0.47421,2.32618 0,0 -1.10307,1.97957 -2.20687,3.98058 -1.1038,2.00101 -2.21357,3.99776 -2.21357,3.99776 0,0 -0.58776,1.86762 -1.18101,3.6885 -0.59563,1.82816 -1.18691,3.57578 -1.18691,3.57578 0,0 -1.16478,2.60087 -2.27462,4.9797 -1.12477,2.41084 -2.12238,4.51618 -2.12238,4.51618 z"
         id="path4665"
         inkscape:connector-curvature="0"
         inkscape:original-d="m 404.91406,132.20806 h -3.67187 v -12.42188 q 0,-1.5039 -0.17578,-2.8125 -0.17579,-1.32812 -0.64454,-2.07031 -0.48828,-0.82031 -1.40625,-1.21094 -0.91796,-0.41015 -2.38281,-0.41015 -1.5039,0 -3.14453,0.74218 -1.64062,0.74219 -3.14453,1.89453 v 16.28907 h -3.67188 v -30.39063 h 3.67188 v 10.9961 q 1.71875,-1.42579 3.55469,-2.22657 1.83593,-0.80078 3.76953,-0.80078 3.53515,0 5.39062,2.12891 1.85547,2.1289 1.85547,6.13281 z"
         style="fill:#ffffff;fill-opacity:0.95505587" />
      <path
         d="m 436.27506,113.52156 c -0.77907,2.57316 0.5898,4.20541 -0.46748,6.19315 -1.23591,2.32359 -5.38333,6.47043 -6.896,7.92971 -1.3897,1.34064 -2.97125,2.46473 -4.17044,3.08134 -1.23641,0.63575 -2.60241,1.71579 -4.15122,1.84504 -1.57025,0.13103 -2.25907,-0.80157 -3.07649,-1.65351 -0.39655,-0.41329 -0.92731,-0.12469 -1.41791,0.12175 -0.48182,0.24202 -0.92531,0.44444 -1.10978,-0.16819 -0.36422,-1.23133 -0.95852,-3.10818 -0.43813,-5.90218 0.50714,-2.72283 1.73275,-5.34068 2.69563,-7.99817 0.94389,-2.60511 2.12715,-6.54236 3.31716,-8.73016 1.17803,-2.16576 3.22386,-3.53924 4.53847,-4.85627 1.31459,-1.31632 2.72081,-2.22365 3.86231,-2.65723 1.13482,-0.43104 2.8377,-1.741165 4.19445,-1.717516 1.3431,0.02341 2.29679,0.506737 2.93762,1.442256 0.65082,0.95012 0.2835,0.20714 0.63349,1.42736 0.35747,1.22865 0.6577,3.30431 0.67833,5.80492 0.0211,2.5587 -0.36378,3.30695 -1.13001,5.8377 z m -3.18396,2.74714 c 0.64427,-2.04244 1.10959,-5.50052 1.31648,-6.97544 0.20317,-1.44836 0.53544,-1.76586 0.32982,-2.68636 -0.20065,-0.91955 1.28045,-3.20616 0.58765,-3.56163 -0.69091,-0.3545 -3.04299,0.6629 -3.92378,0.65932 -0.89245,-0.004 -3.56433,2.78832 -4.56253,3.39606 -1.00256,0.61041 -0.37011,-1.47398 -1.1974,-0.53959 -0.82364,0.93159 -1.5183,1.98428 -2.26037,3.57401 -0.69801,1.49537 -3.04337,6.57278 -3.74291,8.51817 -0.73353,2.03991 -0.94432,3.92859 -0.8671,4.7531 0.0784,0.83741 0.25441,0.70914 0.40534,1.68182 0.15557,0.97073 2.84739,-1.04761 3.45387,-0.5983 0.60864,0.45092 -0.78451,1.65031 0.17513,1.61213 0.94488,-0.0376 1.70799,-0.16775 2.61239,-0.25937 0.89972,-0.0911 1.56233,-0.11094 2.43576,-1.0714 0.88394,-0.97065 2.07258,0.0585 2.94573,-1.4001 0.91204,-1.52351 1.60821,-4.93491 2.29192,-7.10242 z"
         id="path4667"
         inkscape:connector-curvature="0"
         inkscape:original-d="m 430.57812,121.30962 q 0,5.33203 -2.73437,8.41797 -2.73438,3.08594 -7.32422,3.08594 -4.62891,0 -7.36328,-3.08594 -2.71484,-3.08594 -2.71484,-8.41797 0,-5.33203 2.71484,-8.41797 2.73437,-3.10547 7.36328,-3.10547 4.58984,0 7.32422,3.10547 2.73437,3.08594 2.73437,8.41797 z m -3.78906,0 q 0,-4.23828 -1.66015,-6.28906 -1.66016,-2.07032 -4.60938,-2.07032 -2.98828,0 -4.64844,2.07032 -1.64062,2.05078 -1.64062,6.28906 0,4.10156 1.66015,6.23047 1.66016,2.10937 4.62891,2.10937 2.92969,0 4.58984,-2.08984 1.67969,-2.10938 1.67969,-6.25 z"
         style="fill:#ffffff;fill-opacity:0.95505587" />
      <path
         d="m 448.07352,127.69462 c -0.37046,0.11256 -0.67035,0.63293 -0.96911,1.09601 -0.30377,0.47085 -0.60669,0.88521 -1.03486,0.96426 -0.84165,0.15693 -1.57757,-0.0472 -2.21048,-0.006 -0.54675,0.0359 -1.39486,0.56496 -2.16779,1.01199 -0.77759,0.44973 -1.50492,0.83447 -1.88961,0.75955 -0.38771,-0.0755 -0.34559,-0.68996 -0.21241,-1.51984 0.129,-0.80378 0.34536,-1.81512 0.18252,-2.14104 -0.32329,-0.64702 0.083,-1.84041 0.12705,-2.94681 0.0451,-1.1321 -0.0701,-1.16677 0.49951,-2.9784 0,0 0.32065,-1.01255 0.64464,-2.07424 0.32245,-1.05665 0.64532,-2.14957 0.64532,-2.14957 0,0 0.75123,-1.96242 1.50579,-3.99004 0.75087,-2.01771 1.49999,-4.03879 1.49999,-4.03879 0,0 -0.78498,-3.08914 -0.78498,-3.08914 0,0 -1.16353,-2.6184 -1.16353,-2.6184 0,0 1.13125,-0.41926 1.13125,-0.41926 0,0 0.54862,-0.87559 1.10387,-1.71131 0.55755,-0.8392 1.12167,-1.63091 1.12167,-1.63091 0,0 2.26872,-1.644484 2.26872,-1.644484 0,0 -0.16166,-0.793977 -0.30239,-1.522799 -0.14249,-0.737944 -0.26005,-1.401145 -0.26005,-1.401145 0,0 2.92188,0.510389 2.92188,0.510389 0,0 -1.62159,1.558007 -1.62159,1.558007 0,0 -0.13095,1.364866 -0.21664,2.940902 -0.0845,1.55353 -0.13578,3.25531 -0.13578,3.25531 0,0 4.09446,-1.88728 4.09446,-1.88728 0,0 3.76517,-0.92037 3.76517,-0.92037 0,0 -0.39664,0.95477 -0.78609,1.97674 -0.38706,1.01566 -0.76684,2.08295 -0.76684,2.08295 0,0 -3.24158,0.52071 -3.24158,0.52071 0,0 -4.26776,0.32909 -4.26776,0.32909 0,0 -0.48216,1.45077 -0.96286,2.95101 -0.47951,1.49655 -0.95607,3.00857 -0.95607,3.00857 0,0 -0.1813,1.53239 -0.36519,3.04824 -0.18443,1.52018 -0.36948,2.9874 -0.36948,2.9874 -0.99307,2.25748 -1.3379,3.56395 -1.55892,4.44099 -0.21396,0.85292 -0.14946,1.37987 -0.0768,2.08174 0.0321,0.33007 -0.22419,1.21558 -0.43099,1.99499 -0.20898,0.78757 -0.36547,1.46 -0.17079,1.58098 0.20528,0.11455 0.98364,-0.58691 1.8513,-1.38515 0.86159,-0.79264 1.81944,-1.68933 2.31462,-1.70742 0.5814,-0.0213 0.30976,1.20484 1.0094,0.98073 0.70328,-0.23892 0.7612,0.29524 1.08462,0.14851 0,0 1.74038,-1.67204 1.74038,-1.67204 0,0 -0.65813,0.87499 -1.30432,1.68024 -0.65157,0.81195 -1.28529,1.54476 -1.28529,1.54476 z"
         id="path4669"
         inkscape:connector-curvature="0"
         inkscape:original-d="m 447.60937,132.01274 q -1.03515,0.27344 -2.26562,0.44922 -1.21094,0.17578 -2.16797,0.17578 -3.33984,0 -5.07812,-1.79687 -1.73829,-1.79688 -1.73829,-5.76172 v -11.60156 h -2.48046 v -3.08594 h 2.48046 v -6.26953 h 3.67188 v 6.26953 h 7.57812 v 3.08594 h -7.57812 v 9.9414 q 0,1.71875 0.0781,2.69532 0.0781,0.95703 0.54688,1.79687 0.42969,0.78125 1.17187,1.15235 0.76172,0.35156 2.30469,0.35156 0.89844,0 1.875,-0.25391 0.97656,-0.27344 1.40625,-0.44922 h 0.19531 z"
         style="fill:#ffffff;fill-opacity:0.95505587" />
      <path
         d="m 477.1758,99.026089 c 0,0 -4.00651,-0.05468 -4.00651,-0.05468 0,0 0.3404,-1.124054 0.71182,-2.037353 0.38116,-0.937261 0.79388,-1.620675 0.79388,-1.620675 0,0 3.07146,0.272581 3.07146,0.272581 0,0 -0.17605,0.656063 -0.31986,1.538209 -0.13973,0.85713 -0.25079,1.901913 -0.25079,1.901913 z m -7.09696,29.312841 c 0,0 -3.33177,-0.27077 -3.33177,-0.27077 0,0 0.55684,-1.14435 1.19379,-2.82061 0.61668,-1.62293 1.26584,-3.62788 1.26584,-3.62788 0,0 0.1057,-1.02596 0.21429,-2.13444 0.10771,-1.09953 0.21612,-2.25806 0.21612,-2.25806 0,0 0.2604,-1.3683 0.52233,-2.78975 0.26116,-1.41731 0.52074,-2.84896 0.52074,-2.84896 0,0 0.47844,-1.76747 0.9631,-3.50121 0.48693,-1.74187 0.97568,-3.37776 0.97568,-3.37776 0,0 -0.0227,-0.89953 -0.0396,-1.75493 -0.017,-0.86181 -0.0267,-1.66728 -0.0267,-1.66728 0,0 3.40954,0.38338 3.40954,0.38338 0,0 -0.51925,1.25322 -1.03303,2.63477 -0.50946,1.36995 -1.0104,2.82412 -1.0104,2.82412 0,0 -0.24105,1.31838 -0.48139,2.6754 -0.23989,1.3544 -0.47786,2.71304 -0.47786,2.71304 0,0 -0.1254,1.81963 -0.25271,3.58769 -0.12817,1.77985 -0.25455,3.42514 -0.25455,3.42514 0,0 -0.36337,1.84607 -0.71533,3.44999 -0.35999,1.64048 -0.68773,2.93084 -0.68773,2.93084 0,0 -0.25738,0.72493 -0.49847,1.32837 -0.24713,0.61855 -0.47196,1.09891 -0.47196,1.09891 z"
         id="path4671"
         inkscape:connector-curvature="0"
         inkscape:original-d="m 470.07031,106.73931 h -4.14062 v -3.8086 h 4.14062 z m -0.23437,25.46875 h -3.67188 v -21.81641 h 3.67188 z"
         style="fill:#ffffff;fill-opacity:0.95505587" />
      <path
         d="m 495.63996,126.88167 c 0,0 -3.81218,0.39922 -3.81218,0.39922 0,0 0.31331,-0.48209 0.64966,-1.14963 0.32702,-0.64902 0.66879,-1.45797 0.66879,-1.45797 0,0 0.0637,-1.07031 0.13683,-2.4017 0.0715,-1.30281 0.14742,-2.79421 0.14742,-2.79421 0,0 -0.0708,-2.09761 -0.14397,-4.44143 -0.0726,-2.3259 -0.14446,-4.68714 -0.14446,-4.68714 0.90784,1.41771 1.07176,-0.11314 1.09053,-1.24077 0.0204,-1.13041 0.1826,-1.57507 -0.0305,-2.18694 -0.21911,-0.68171 -0.66336,-1.75992 -1.17852,-2.06682 -0.50924,-0.31968 -1.44871,-0.0121 -2.32966,-0.0158 -0.89891,-0.004 -2.37099,-0.57089 -3.43991,4.1e-4 -1.07969,0.57707 -1.79209,2.173 -2.85265,3.14731 0,0 -0.38159,5.03349 -0.38159,5.03349 0,0 -0.01,1.3279 -0.0203,2.62401 -0.0105,1.30244 -0.0211,2.53733 -0.0211,2.53733 0,0 -0.36379,1.54546 -0.72337,2.94449 -0.36514,1.42067 -0.71491,2.63037 -0.71491,2.63037 0,0 -0.47771,1.56373 -0.91649,2.70623 -0.46035,1.19866 -0.84408,1.8525 -0.84408,1.8525 0,0 -5.16317,0.19261 -5.16317,0.19261 0,0 0.37377,-0.71168 0.82426,-1.94209 0.43067,-1.1763 0.90132,-2.75366 0.90132,-2.75366 0,0 0.27948,-1.03696 0.56996,-2.2216 0.28663,-1.16893 0.57754,-2.44807 0.57754,-2.44807 0,0 1.74612,-2.9787 1.74612,-2.9787 0,0 0.32006,-2.32912 0.63964,-4.70451 0.31957,-2.37539 0.64414,-4.69385 0.64414,-4.69385 0,0 0.14936,-1.22477 0.30458,-2.38587 0.15652,-1.17083 0.31936,-2.24814 0.31936,-2.24814 0,0 3.14863,-0.34378 3.14863,-0.34378 0,0 -0.70553,2.5234 -0.70553,2.5234 1.84806,-1.21196 3.75327,-2.43823 5.06131,-3.01468 1.17977,-0.51992 0.70012,0.56976 1.84722,0.57977 1.04861,0.009 0.91918,1.66882 1.84364,1.84672 0.92631,0.17825 1.83029,0.85568 2.28937,1.69321 0.46157,0.84206 0.87405,1.70366 1.281,2.40463 0.40875,0.70407 1.32528,1.93121 1.15804,3.68037 0,0 -0.27715,1.51649 -0.55574,3.01273 -0.27969,1.50219 -0.55607,2.92813 -0.55607,2.92813 0,0 -0.49597,1.62884 -0.98878,3.10147 -0.50041,1.49534 -0.98319,2.75709 -0.98319,2.75709 0,0 0.15681,1.1279 0.31847,2.02104 0.16749,0.92537 0.33834,1.56079 0.33834,1.56079 z"
         id="path4673"
         inkscape:connector-curvature="0"
         inkscape:original-d="m 495.38281,132.20806 h -3.67187 v -12.42188 q 0,-1.5039 -0.17578,-2.8125 -0.17579,-1.32812 -0.64454,-2.07031 -0.48828,-0.82031 -1.40625,-1.21094 -0.91796,-0.41015 -2.38281,-0.41015 -1.5039,0 -3.14453,0.74218 -1.64062,0.74219 -3.14453,1.89453 v 16.28907 h -3.67188 v -21.81641 h 3.67188 v 2.42188 q 1.71875,-1.42579 3.55469,-2.22657 1.83593,-0.80078 3.76953,-0.80078 3.53515,0 5.39062,2.12891 1.85547,2.1289 1.85547,6.13281 z"
         style="fill:#ffffff;fill-opacity:0.95505587" />
      <path
         d="m 529.69589,126.88576 c -0.34239,0.0496 -0.73227,-0.18521 -1.14538,-0.47419 -0.4079,-0.28532 -0.84138,-0.62616 -1.24142,-0.58434 -0.38485,0.0409 -0.94307,0.49137 -1.44467,0.82754 -0.52366,0.35095 -0.99762,0.59127 -1.32509,0.58896 -0.55745,-0.004 -0.74006,-0.28535 -0.93058,-0.73852 -0.18108,-0.43071 -0.37942,-1.05695 -0.92082,-1.23028 -0.54616,-0.17485 -1.14809,0.15018 -1.68609,0.42693 -0.5332,0.27428 -1.01194,0.50717 -1.28984,0.28718 -0.57942,-0.45867 -1.20139,-1.24597 -1.78752,-2.30532 -0.56101,-1.01394 0.36565,-1.47882 0.39884,-3.06445 0,0 -0.0229,-0.94367 -0.046,-1.96898 -0.0229,-1.01646 -0.0459,-2.09027 -0.0459,-2.09027 0,0 0.11514,-1.11233 0.23134,-2.26576 0.11585,-1.14997 0.23152,-2.31366 0.23152,-2.31366 0,0 -0.28047,-2.14289 -0.56187,-4.23056 -0.28375,-2.10515 -0.55571,-3.98731 -0.55571,-3.98731 0,0 -2.46246,-0.32711 -2.46246,-0.32711 0,0 0.32856,-1.78129 0.32856,-1.78129 0,0 0.84456,-0.48875 0.84456,-0.48875 0,0 0.0307,-0.69301 0.063,-1.313635 0.0328,-0.630551 0.0673,-1.176887 0.0673,-1.176887 0,0 0.34721,-0.641329 0.6908,-1.159595 0.3515,-0.530188 0.69517,-0.921503 0.69517,-0.921503 0,0 0.78689,0.313483 1.58519,0.698754 0.79381,0.3831 1.59595,0.833304 1.59595,0.833304 0,0 -1.54064,0.989676 -1.54064,0.989676 0,0 0.35948,0.530477 0.72569,1.125776 0.36255,0.58936 0.72944,1.23562 0.72944,1.23562 0,0 2.67911,0.1415 2.67911,0.1415 0,0 3.52239,0.97747 3.52239,0.97747 0,0 1.11663,2.1423 1.11663,2.1423 0,0 -3.81868,0.22893 -3.81868,0.22893 0,0 -2.30786,3.26945 -2.30786,3.26945 0,0 -0.72663,4.69202 -0.72663,4.69202 0,0 0.0475,1.36537 0.0952,2.69564 0.048,1.33757 0.0955,2.59547 0.0955,2.59547 -1.093,1.07643 -1.88555,1.07253 -1.84646,1.87699 0.0387,0.77619 1.04894,1.48904 1.34443,2.11029 0.13615,0.29058 0.35504,1.10564 0.60052,1.79503 0.24905,0.69943 0.51391,1.24933 0.75992,1.35487 0.49905,0.19773 1.21543,-0.0291 2.22673,-0.0234 0.58885,0.003 1.89491,-1.2424 2.52725,-1.40613 0.6309,-0.17631 -0.16106,0.60788 0.11693,0.49903 0,0 0.42478,-0.88687 0.42478,-0.88687 0,0 0.5043,1.07553 0.99674,1.91156 0.5078,0.8621 0.99007,1.43456 0.99007,1.43456 z"
         id="path4675"
         inkscape:connector-curvature="0"
         inkscape:original-d="m 527.84375,132.01274 q -1.03516,0.27344 -2.26563,0.44922 -1.21093,0.17578 -2.16796,0.17578 -3.33985,0 -5.07813,-1.79687 -1.73828,-1.79688 -1.73828,-5.76172 v -11.60156 h -2.48047 v -3.08594 h 2.48047 v -6.26953 h 3.67187 v 6.26953 h 7.57813 v 3.08594 h -7.57813 v 9.9414 q 0,1.71875 0.0781,2.69532 0.0781,0.95703 0.54687,1.79687 0.42969,0.78125 1.17188,1.15235 0.76172,0.35156 2.30469,0.35156 0.89843,0 1.875,-0.25391 0.97656,-0.27344 1.40625,-0.44922 h 0.19531 z"
         style="fill:#ffffff;fill-opacity:0.95505587" />
      <path
         d="m 550.67696,127.53218 c 0,0 -4.39432,0.21966 -4.39432,0.21966 0,0 0.0346,-0.39652 0.061,-1.04266 0.0251,-0.61689 0.0433,-1.44528 0.0433,-1.44528 0,0 -0.0732,-1.12666 -0.15758,-2.59894 -0.0823,-1.43505 -0.16935,-3.11033 -0.16935,-3.11033 0,0 -0.0717,-1.28176 -0.14474,-2.66445 -0.0725,-1.37301 -0.14453,-2.79753 -0.14453,-2.79753 -0.55995,-2.19238 0.19308,-4.47087 -0.0126,-5.57008 -0.20539,-1.10595 -1.26271,-1.37716 -1.5986,-1.97113 -0.35275,-0.65564 -0.54714,-1.27172 -1.12687,-1.57027 -0.57807,-0.31179 -1.83335,0.37526 -2.71557,0.37212 -0.90304,-0.003 -1.52223,-0.53243 -2.46962,0.0301 -0.9548,0.56692 -2.36036,2.82488 -3.23396,3.78943 0,0 -0.13183,1.5288 -0.26331,3.0676 -0.13147,1.5388 -0.26252,3.05457 -0.26252,3.05457 0,0 0.15531,0.92505 0.3105,1.82085 0.15597,0.9003 0.31054,1.75707 0.31054,1.75707 0,0 0.1773,1.72942 0.35138,3.21804 0.17845,1.52611 0.34532,2.69763 0.34532,2.69763 0,0 0.28993,0.6801 0.5714,1.2293 0.289,0.56389 0.56464,0.97855 0.56464,0.97855 0,0 -3.8131,-0.0157 -3.8131,-0.0157 0,0 0.36379,-0.26994 0.73225,-0.61029 0.36389,-0.33613 0.73081,-0.73766 0.73081,-0.73766 0,0 -0.0626,-0.45778 -0.15783,-1.29852 -0.102,-0.9006 -0.21955,-2.05057 -0.35738,-3.56194 -0.26551,-2.91137 -0.5278,-6.32058 -0.5278,-6.32058 0,0 -0.7632,-3.35167 -0.7632,-3.35167 0,0 -0.16809,-1.29577 -0.33645,-2.56724 -0.16908,-1.27686 -0.33619,-2.49198 -0.33619,-2.49198 0,0 0.21762,-1.30123 0.43344,-2.49836 0.21865,-1.21282 0.43095,-2.27663 0.43095,-2.27663 0,0 0.0429,-1.25234 0.0812,-2.2558 0.0396,-1.039521 0.0717,-1.760835 0.0717,-1.760835 0,0 -0.36829,-0.576098 -0.72706,-0.948462 -0.37334,-0.387481 -0.7291,-0.547213 -0.7291,-0.547213 0,0 0.70586,0.109931 1.41953,0.311968 0.70989,0.200967 1.42504,0.489261 1.42504,0.489261 0,0 0.10847,0.389223 0.21835,0.952036 0.106,0.542928 0.21175,1.236423 0.21175,1.236423 0,0 -0.30565,1.434762 -0.30565,1.434762 0,0 -0.74816,2.0311 -0.74816,2.0311 2.26084,1.23611 3.29054,0.39892 4.36676,-0.13734 1.04636,-0.52138 0.8686,-1.63718 2.00429,-1.63535 1.03817,0.002 1.91552,1.07954 3.05433,1.69243 1.16306,0.62593 1.92666,1.64647 2.57722,2.46103 0.6336,0.79334 1.34557,1.57232 1.89428,2.51693 0.55623,0.95757 1.66673,1.53026 1.83787,3.23751 0,0 0.0915,1.78521 0.18453,3.57393 0.0934,1.79434 0.18607,3.49638 0.18607,3.49638 0,0 0.0546,1.46994 0.10797,2.82108 0.0541,1.37007 0.10435,2.56101 0.10435,2.56101 0,0 0.23368,1.56265 0.44944,2.75006 0.22566,1.24183 0.41536,1.98547 0.41536,1.98547 z"
         id="path4677"
         inkscape:connector-curvature="0"
         inkscape:original-d="m 550.53906,132.20806 h -3.67187 v -12.42188 q 0,-1.5039 -0.17578,-2.8125 -0.17579,-1.32812 -0.64454,-2.07031 -0.48828,-0.82031 -1.40625,-1.21094 -0.91796,-0.41015 -2.38281,-0.41015 -1.5039,0 -3.14453,0.74218 -1.64062,0.74219 -3.14453,1.89453 v 16.28907 h -3.67188 v -30.39063 h 3.67188 v 10.9961 q 1.71875,-1.42579 3.55469,-2.22657 1.83593,-0.80078 3.76953,-0.80078 3.53515,0 5.39062,2.12891 1.85547,2.1289 1.85547,6.13281 z"
         style="fill:#ffffff;fill-opacity:0.95505587" />
      <path
         d="m 572.80055,116.12763 c 0,0 -4.23271,1.6077 -4.23271,1.6077 0,0 -3.19977,2.22416 -3.19977,2.22416 0,0 -4.43932,-1.49198 -4.43932,-1.49198 0,0 -3.00675,-3.01471 -3.00675,-3.01471 0.015,2.19861 0.27471,3.76456 0.84321,5.02001 0.58354,1.27738 1.04668,2.46779 1.85969,3.20012 0.77956,0.71221 1.86899,0.18 2.83093,0.54282 1.01319,0.37752 3.0023,1.17541 4.13165,1.2103 1.4239,0.044 2.08537,0.49151 3.38495,-0.0673 1.36505,-0.59629 2.15066,-1.80283 2.65368,-2.53559 0,0 -0.72237,-0.43242 -0.72237,-0.43242 0,0 0.0608,0.80048 0.11818,1.53551 0.058,0.74413 0.11113,1.41058 0.11113,1.41058 0.52521,2.28645 -0.68374,2.13588 -1.90409,2.369 -0.5868,0.11209 -0.91325,0.57201 -1.23761,0.88671 -0.34188,0.33169 -0.70297,0.5404 -1.41799,0.5006 -0.90555,-0.0504 -1.5743,-0.32116 -2.2538,-0.74576 -0.60995,-0.38114 -1.42949,-1.04749 -2.25718,-1.39819 -1.77301,-0.75125 -5.88253,-0.40158 -7.047,-1.35001 -1.15352,-0.94471 -0.39964,-2.87326 -0.76691,-4.62607 -0.36192,-1.72732 -1.61726,-3.09195 -1.90661,-5.51654 -0.28174,-2.36067 -0.31159,-4.86356 -0.13127,-6.66025 0.17727,-1.76622 0.64617,-2.80522 1.35318,-3.99855 0.69076,-1.15625 0.0847,-1.1115 1.10984,-1.68393 0.50288,-0.2808 1.26574,-1.21822 2.02441,-1.98268 0.77698,-0.7829 1.58126,-1.425438 2.28075,-1.429581 1.25814,-0.0075 3.03921,-0.148881 4.30842,0.626761 0.66929,0.40902 1.3018,1.49241 1.91323,2.76571 0.59402,1.23705 1.14772,2.61128 1.59733,3.12135 0.92367,1.04118 0.88605,-0.0685 1.42912,0.86504 0.55651,0.95657 1.90485,3.48078 2.30188,5.64334 0,0 0.2718,3.40381 0.2718,3.40381 z m -5.93352,-7.07479 c -0.4254,-2.45085 0.74836,-1.30038 -0.35768,-2.58593 -1.07938,-1.26814 -2.54162,-1.89313 -4.29452,-1.89493 -0.88394,-9.1e-4 -1.65405,0.24992 -2.30847,0.58092 -0.65579,0.33169 -0.83574,0.75464 -1.26344,1.44874 -0.85172,1.40155 -1.5046,3.30388 -1.35622,5.56996 0,0 3.85481,-0.21063 3.85481,-0.21063 0,0 3.79055,-0.007 3.79055,-0.007 0,0 1.93497,-2.90085 1.93497,-2.90085 z"
         id="path4679"
         inkscape:connector-curvature="0"
         inkscape:original-d="m 575.87109,121.68071 h -16.07422 q 0,2.01172 0.60547,3.51563 0.60547,1.48437 1.66016,2.4414 1.01562,0.9375 2.40234,1.40625 1.40625,0.46875 3.08594,0.46875 2.22656,0 4.47266,-0.8789 2.26562,-0.89844 3.22265,-1.75781 h 0.19532 v 4.0039 q -1.85547,0.78125 -3.78907,1.3086 -1.93359,0.52734 -4.0625,0.52734 -5.42968,0 -8.47656,-2.92969 -3.04687,-2.94922 -3.04687,-8.35937 0,-5.35157 2.91015,-8.4961 2.92969,-3.14453 7.69531,-3.14453 4.41407,0 6.79688,2.57813 2.40234,2.57812 2.40234,7.32422 z m -3.57422,-2.8125 q -0.0195,-2.89062 -1.46484,-4.47265 -1.42578,-1.58203 -4.35547,-1.58203 -2.94922,0 -4.70703,1.73828 -1.73828,1.73828 -1.97266,4.3164 z"
         style="fill:#ffffff;fill-opacity:0.95505587" />
      <path
         d="m 613.31785,111.42664 c 0.59407,1.86575 0.40498,5.22889 0.68962,6.94506 0.28759,1.73399 0.12159,1.36033 0.0767,2.8887 -0.0386,1.52375 -0.87353,1.65367 -1.1347,2.74515 -0.26341,1.10081 0.0299,3.11862 -0.64069,3.80008 -0.9385,0.95052 -2.51995,-0.22299 -3.97145,0.13208 -0.72148,0.17836 -1.65846,0.80286 -2.59817,1.23151 -0.93206,0.42517 -1.84282,0.48115 -3.14994,0.40432 0,0 -4.98606,-1.28609 -4.98606,-1.28609 0,0 -2.6829,0.0577 -2.6829,0.0577 0,0 -0.13801,-0.95124 -0.30101,-2.09448 -0.15989,-1.12138 -0.33575,-2.39536 -0.33575,-2.39536 0,0 -0.49411,-1.54479 -1.00384,-3.25998 -0.50492,-1.69903 -1.01059,-3.4993 -1.01059,-3.4993 0,0 -2.92366,-6.08628 -2.92366,-6.08628 0,0 -0.84516,-3.37245 -1.40728,-5.42662 0,0 0,0 0,0 -0.27896,-1.01931 -0.49112,-1.74279 -0.49112,-1.74279 0,0 -0.0468,-0.99492 -0.10267,-1.91876 -0.0565,-0.93388 -0.12392,-1.77936 -0.12392,-1.77936 0,0 -0.57017,-0.969103 -1.1567,-1.80228 -0.59466,-0.844741 -1.20457,-1.531485 -1.20457,-1.531485 0,0 1.85482,-0.166182 2.73645,-0.246549 0.27512,-0.02508 0.45558,-0.0416 0.45558,-0.0416 0,0 3.33644,0.0642 3.33644,0.0642 1.21627,-0.498192 2.14842,-0.807266 3.14576,-0.884098 1.00283,-0.07726 2.95798,0.898076 3.76746,1.030915 1.62914,0.256392 2.56808,-1.028679 3.89658,-0.547247 1.11325,0.40718 2.2186,0.821034 3.14472,1.730954 1.0223,1.004407 1.99016,2.082735 2.98131,3.253332 0.95482,1.12768 1.69252,2.65736 2.41244,4.33747 0.71979,1.67981 1.95554,3.95341 2.58199,5.92085 z m -3.87579,1.65724 c -0.53132,-1.74546 -1.55451,-5.40424 -2.17906,-6.73382 -0.57416,-1.22231 -0.4129,-1.91103 -1.09433,-2.8335 -0.86881,-1.17613 -2.78068,-3.545769 -3.93302,-4.291597 -0.93121,-0.602704 -0.77159,0.277718 -1.65048,-0.130363 -1.25489,-0.580932 -2.26392,-0.846554 -3.47214,-1.027926 -1.22736,-0.194446 -2.60327,1.237502 -4.17786,1.263664 0,0 -0.76515,-0.474495 -1.53474,-0.911674 -0.77128,-0.438141 -1.54682,-0.836417 -1.54682,-0.836417 0,0 0.48404,0.925568 0.94658,2.043245 0.45515,1.099778 0.88931,2.354528 0.88931,2.354528 0,0 0.46174,1.28292 0.91593,2.69562 0.45025,1.40043 0.89215,2.88874 0.89215,2.88874 0,0 0.25946,1.82151 0.5204,3.71421 0.25937,1.88127 0.5207,3.76907 0.5207,3.76907 0,0 0.31303,1.27518 0.62757,2.52369 0.3157,1.25311 0.62934,2.45596 0.62934,2.45596 0,0 0.4954,2.17707 0.97442,4.10826 0.48858,1.96969 0.92688,3.56016 0.92688,3.56016 0,0 0.95509,-0.39009 1.90838,-0.81725 0.95177,-0.42648 1.9016,-0.88765 1.9016,-0.88765 1.8137,0.18055 4.20009,-0.97014 5.51077,-1.3104 1.20975,-0.31044 1.27665,0.32179 2.05032,-0.62607 0.97694,-1.19471 3.22436,0.65391 3.20992,-1.44935 -9.1e-4,-1.0229 -0.80767,-3.28283 -1.50934,-5.61463 -0.68935,-2.29091 -0.83531,-2.29293 -1.32648,-3.9065 z"
         id="path4681"
         inkscape:connector-curvature="0"
         inkscape:original-d="m 620.36328,117.69634 q 0,3.96484 -1.73828,7.1875 -1.71875,3.22265 -4.58984,5 -1.99219,1.23047 -4.45313,1.77734 -2.44141,0.54688 -6.44531,0.54688 h -7.34375 v -29.08203 h 7.26562 q 4.25782,0 6.75782,0.625 2.51953,0.60546 4.25781,1.67968 2.96875,1.85547 4.6289,4.94141 1.66016,3.08594 1.66016,7.32422 z m -4.04297,-0.0586 q 0,-3.41796 -1.1914,-5.76171 -1.19141,-2.34375 -3.55469,-3.69141 -1.71875,-0.97656 -3.65235,-1.34766 -1.93359,-0.39062 -4.6289,-0.39062 h -3.63281 v 22.4414 h 3.63281 q 2.79297,0 4.86328,-0.41015 2.08984,-0.41016 3.82812,-1.52344 2.16797,-1.38672 3.24219,-3.65234 1.09375,-2.26563 1.09375,-5.66407 z"
         style="fill:#ffffff;fill-opacity:0.95505587" />
      <path
         d="m 640.9468,131.22322 c 0,0 -2.03906,1.2507 -2.03906,1.2507 0,0 -0.41739,-2.44057 -0.41739,-2.44057 -1.29371,-0.85976 -1.27302,0.63813 -1.59715,1.13169 -0.32612,0.48874 -0.65128,1.3433 -1.04879,1.59976 -0.22757,0.1658 -0.70079,-0.41428 -1.21466,-1.03439 -0.51357,-0.61975 -1.06845,-1.28137 -1.40696,-1.17494 -0.67158,0.23042 -1.04535,1.17806 -2.10239,1.11083 -0.97143,-0.0618 -1.91073,-0.20325 -2.86578,-0.49649 -0.95497,-0.29321 -1.6163,-0.90646 -2.62004,-1.77566 -0.99669,-0.8631 -1.81809,-3.22609 -2.65675,-4.34701 -0.83175,-1.11169 -1.95115,-1.08878 -2.46576,-2.53922 -0.83176,-2.34432 0.41123,-0.89543 0.56341,-2.36987 0.15631,-1.47768 -0.78343,-5.03855 0.15212,-5.87976 0.94087,-0.83508 2.40907,-2.22631 4.01816,-2.51544 0.80368,-0.14441 2.97967,2.23471 3.86546,2.13185 0.88513,-0.10277 0.59687,-2.58659 1.54977,-2.65736 0,0 -0.30397,-0.17709 -0.30397,-0.17709 -0.58093,-1.93252 -1.97948,-3.67791 -2.5386,-4.41893 -0.53694,-0.72723 -0.75045,-3.2987 -1.39928,-3.67613 -0.61706,-0.36067 0.19595,2.03563 -0.51186,1.90607 -0.70574,-0.12919 -2.10885,-0.10793 -2.82072,-0.10359 -0.86248,0.005 -3.00291,0.26322 -3.94276,0.5995 -0.951,0.3214 -1.19741,1.29632 -2.11869,1.93472 0,0 -1.14902,-2.0096 -1.14902,-2.0096 0,0 -0.94656,-2.79955 -0.94656,-2.79955 1.03402,-0.61884 1.5847,-1.33936 2.6699,-1.618 1.08277,-0.27802 2.30982,0.3301 3.47419,0.31248 1.36035,-0.0206 2.87353,2.12636 4.01608,2.44003 1.15045,0.29818 1.41944,-2.33085 2.4765,-1.61273 1.14528,0.77488 2.90054,3.50136 3.87457,4.90386 0.89462,1.28815 0.7834,2.94308 1.54125,4.96137 0,0 1.00503,1.94997 2.02158,3.90828 1.01695,1.95909 2.03668,3.88555 2.03668,3.88555 0,0 0.80222,1.45585 1.60383,2.87743 0.804,1.42583 1.59948,2.80288 1.59948,2.80288 0,0 0.20242,1.57012 0.38078,3.04205 0.18013,1.48644 0.32243,2.84728 0.32243,2.84728 z m -4.22694,-4.81468 c 0,0 -0.5643,-1.55259 -1.14373,-3.19407 -0.57633,-1.6327 -1.15559,-3.32547 -1.15559,-3.32547 0,0 -1.90856,-4.1017 -1.90856,-4.1017 -1.40206,-0.25772 -3.16304,-2.72767 -4.50281,-2.5483 -1.32945,0.17973 -1.79188,3.09024 -2.49085,3.44425 -0.8282,0.42776 -1.5266,2.62601 -1.805,3.52846 -0.2924,0.90665 -1.97459,-1.14835 -1.40818,0.45475 0.64371,1.82192 3.29948,3.16783 4.36326,4.08932 1.08269,0.92523 1.95357,2.33547 3.47153,2.39274 1.30209,0.0491 2.39108,-1.88812 3.17797,-2.62321 0.36691,-0.35573 1.10161,0.37528 1.80249,1.05899 0.69904,0.68192 1.36552,1.31864 1.59947,0.82424 z"
         id="path4683"
         inkscape:connector-curvature="0"
         inkscape:original-d="m 643.3125,132.20806 h -3.65234 v -2.32422 q -0.48829,0.33203 -1.32813,0.9375 -0.82031,0.58594 -1.60156,0.9375 -0.91797,0.44922 -2.10938,0.74219 -1.1914,0.3125 -2.79297,0.3125 -2.94921,0 -5,-1.95313 -2.05078,-1.95312 -2.05078,-4.98047 0,-2.48047 1.05469,-4.0039 1.07422,-1.54297 3.04688,-2.42188 1.99218,-0.87891 4.78515,-1.19141 2.79297,-0.3125 5.9961,-0.46875 v -0.5664 q 0,-1.25 -0.44922,-2.07031 -0.42969,-0.82032 -1.25,-1.28907 -0.78125,-0.44922 -1.875,-0.60547 -1.09375,-0.15625 -2.28516,-0.15625 -1.44531,0 -3.22266,0.39063 -1.77734,0.37109 -3.67187,1.09375 h -0.19531 v -3.73047 q 1.07422,-0.29297 3.10547,-0.64453 2.03125,-0.35156 4.0039,-0.35156 2.30469,0 4.00391,0.39062 1.71875,0.3711 2.96875,1.28906 1.23047,0.89844 1.875,2.32422 0.64453,1.42578 0.64453,3.53516 z m -3.65234,-5.3711 v -6.07422 q -1.67969,0.0977 -3.96485,0.29297 -2.26562,0.19532 -3.59375,0.56641 -1.58203,0.44922 -2.55859,1.40625 -0.97656,0.9375 -0.97656,2.59766 0,1.875 1.13281,2.83203 1.13281,0.9375 3.45703,0.9375 1.93359,0 3.53516,-0.74219 1.60156,-0.76172 2.96875,-1.81641 z"
         style="fill:#ffffff;fill-opacity:0.95505587" />
      <path
         d="m 650.7357,106.52861 c 0,0 0.62165,-0.001 0.62165,-0.001 -1.35908,-0.38254 -2.01026,-0.57361 -2.50776,-0.64201 -0.49679,-0.0867 -2.96293,-2.89243 -3.58994,-2.88544 -1.01019,0.0112 0.0375,1.3946 -0.60845,2.07952 -0.66113,0.67515 -1.19207,2.99829 -1.62291,4.14141 0,0 1.84834,5.22139 1.84834,5.22139 0,0 2.7391,6.3615 2.7391,6.3615 0,0 0.42563,1.47864 0.84896,2.92109 0.42488,1.44772 0.84015,2.84497 0.84015,2.84497 0,0 0.95597,1.63649 1.88175,3.2126 0.92579,1.57611 1.80608,3.08777 1.80608,3.08777 0,0 -0.62175,0.65871 -1.25835,1.27843 -0.63817,0.62124 -1.29263,1.20014 -1.29263,1.20014 0,0 -0.43961,-1.0146 -0.92533,-2.08759 -0.48219,-1.06519 -1.00053,-2.18252 -1.00053,-2.18252 0,0 -0.84231,-2.84159 -1.7637,-5.9387 -0.92275,-3.10172 -1.85746,-6.37524 -1.85746,-6.37524 0,0 -2.36746,-7.15479 -2.36746,-7.15479 0,0 -2.36751,-4.10512 -2.36751,-4.10512 0,0 -0.96095,-2.00262 -1.94387,-3.90133 -0.98897,-1.9104 -2.00825,-3.666271 -2.00825,-3.666271 0,0 3.42393,1.905631 3.42393,1.905631 0,0 1.64422,3.35634 1.64422,3.35634 0.69803,-1.48428 1.45493,-3.91049 2.14594,-4.51473 0.68784,-0.6142 1.74307,-0.747513 2.76369,-0.76808 0.56256,-0.01134 0.23927,0.89873 0.51679,0.94256 0.2696,0.0278 1.14884,0.38686 1.7131,0.49325 0,0 0.59321,1.24892 1.17338,2.54814 0.57831,1.29505 1.14707,2.62827 1.14707,2.62827 z"
         id="path4685"
         inkscape:connector-curvature="0"
         inkscape:original-d="m 664.03516,114.39556 h -0.19532 q -0.82031,-0.19532 -1.60156,-0.27344 -0.76172,-0.0977 -1.81641,-0.0977 -1.69921,0 -3.28125,0.76172 -1.58203,0.74219 -3.04687,1.9336 v 15.48828 h -3.67188 v -21.81641 h 3.67188 v 3.22266 q 2.1875,-1.75782 3.84766,-2.48047 1.67968,-0.74219 3.41796,-0.74219 0.95704,0 1.38672,0.0586 0.42969,0.0391 1.28907,0.17579 z"
         style="fill:#ffffff;fill-opacity:0.95505587" />
      <path
         d="m 685.64326,133.56129 c 0,0 -5.8187,-0.61075 -5.8187,-0.61075 0,0 -1.65034,-2.31474 -3.36045,-4.62348 -1.70836,-2.30637 -3.44038,-4.61694 -3.44038,-4.61694 0,0 -3.28108,-2.10567 -3.28108,-2.10567 0,0 -4.65732,-3.59247 -4.65732,-3.59247 0,0 -2.1006,1.33737 -2.1006,1.33737 0,0 1.22878,4.45586 1.22878,4.45586 0,0 1.29797,2.69679 2.5475,5.32422 1.25534,2.63966 2.39578,5.18779 2.39578,5.18779 0,0 -2.21518,-0.50053 -2.21518,-0.50053 0,0 -0.86033,-1.3847 -1.76099,-2.79291 -0.8981,-1.4042 -1.82395,-2.8304 -1.82395,-2.8304 0,0 -2.67229,-4.50188 -2.67229,-4.50188 0,0 -1.0418,-2.40993 -2.07828,-4.8735 -1.03534,-2.46084 -2.04894,-4.93257 -2.04894,-4.93257 0,0 -2.82847,-7.00875 -2.82847,-7.00875 0,0 -0.66912,-1.65349 -1.35333,-3.25307 -0.68683,-1.60571 -1.396,-3.1361 -1.396,-3.1361 0,0 -0.61092,-1.188421 -1.2495,-2.317064 -0.6412,-1.133281 -1.31526,-2.196061 -1.31526,-2.196061 0,0 -0.61952,-0.970579 -1.27888,-1.871642 -0.66194,-0.904579 -1.36897,-1.731646 -1.36897,-1.731646 0,0 2.78039,-0.867226 2.78039,-0.867226 0,0 0.75942,0.912507 1.45824,1.916503 0.69601,0.99997 1.33921,2.081416 1.33921,2.081416 0,0 1.11774,1.619972 2.16289,3.390419 1.0398,1.761391 2.02489,3.638031 2.02489,3.638031 0,0 0.77153,1.94894 1.52711,3.97652 0.75315,2.02103 1.50082,4.08686 1.50082,4.08686 0,0 2.34395,5.06034 2.34395,5.06034 0,0 0.79967,-4.02998 0.79967,-4.02998 0,0 1.98406,-2.19342 1.98406,-2.19342 0,0 -0.83944,-5.77781 -0.83944,-5.77781 0,0 2.6995,-0.7442 2.6995,-0.7442 0,0 2.38146,-2.25726 2.38146,-2.25726 0,0 -0.81718,4.41502 -0.81718,4.41502 0,0 -2.60866,2.06486 -2.60866,2.06486 0,0 1.66641,5.22421 1.66641,5.22421 0,0 6.3175,7.10078 6.3175,7.10078 0,0 3.30362,5.09949 3.30362,5.09949 0,0 5.41617,5.7006 5.41617,5.7006 0,0 4.4359,3.30504 4.4359,3.30504 z"
         id="path4687"
         inkscape:connector-curvature="0"
         inkscape:original-d="m 687.33594,132.20806 h -4.84375 l -8.75,-9.55078 -2.38282,2.26562 v 7.28516 h -3.67187 v -30.39063 h 3.67187 v 19.49219 l 10.60547,-10.91797 h 4.62891 l -10.13672,10.07813 z"
         style="fill:#ffffff;fill-opacity:0.95505587" />
    </g>
  </g>
</svg>
